<svg width="99" height="80" viewBox="0 0 99 80" fill="none" xmlns="http://www.w3.org/2000/svg">
<path d="M87.4958 35.049H51.3185V1.52588e-05H39.9552V79.9958H51.3185V45.7388H87.4958V79.9958H98.8591V1.52588e-05H87.4958V35.049Z" fill="#242F62"/>
<path d="M0.136195 38.0829C0.0557382 39.3358 0 40.6768 0 41.98C0 42.5122 0.0117357 43.0109 0.0247261 43.4844H28.7587V38.0829H0.136195Z" fill="#242F62"/>
<path d="M28.7572 -7.62939e-06H5.03707L0.643799 32.6562H28.7572V-7.62939e-06Z" fill="#C61C2E"/>
<path d="M16.554 72.9306C20.8542 76.1615 25.2379 78.4537 28.757 80V48.9152H0.641968C2.49164 58.2055 7.88685 66.4061 16.554 72.9306Z" fill="#C61C2E"/>
<path d="M0.642105 48.9152H28.7571V43.4844H0.0281982C0.144274 46.9499 0.642105 48.9152 0.642105 48.9152Z" fill="white"/>
<path d="M28.7571 32.6562H0.643782C0.643782 32.6562 0.324471 35.1034 0.134644 38.0828H28.7571V32.6562Z" fill="white"/>
</svg>
