<svg width="25" height="20" viewBox="0 0 25 20" fill="none" xmlns="http://www.w3.org/2000/svg">
<path fill-rule="evenodd" clip-rule="evenodd" d="M21.0859 0.665681C21.5145 0.240797 22.0931 0.00167388 22.6966 8.75457e-06C23.3002 -0.00165637 23.8801 0.23427 24.3111 0.656783C24.742 1.0793 24.9894 1.65445 24.9997 2.25789C25.0099 2.86133 24.7823 3.44457 24.366 3.88153L12.1397 19.1644C11.9296 19.3908 11.6759 19.5724 11.394 19.6985C11.1121 19.8246 10.8076 19.8925 10.4988 19.8982C10.1901 19.9039 9.8833 19.8473 9.59689 19.7318C9.31049 19.6162 9.05032 19.4441 8.83196 19.2257L0.731094 11.1218C0.505413 10.9115 0.3244 10.6579 0.198854 10.3761C0.0733075 10.0944 0.00579925 9.79018 0.000357479 9.48176C-0.00508429 9.17334 0.051652 8.86697 0.16718 8.58095C0.282709 8.29493 0.454663 8.03511 0.672786 7.81699C0.890908 7.59887 1.15073 7.42691 1.43675 7.31139C1.72277 7.19586 2.02913 7.13912 2.33755 7.14456C2.64598 7.15 2.95015 7.21751 3.23191 7.34306C3.51368 7.46861 3.76727 7.64962 3.97757 7.8753L10.3909 14.2855L21.0277 0.733062C21.0466 0.709337 21.0671 0.686831 21.0889 0.665681H21.0859Z" fill="white"/>
</svg>
